<svg xmlns="http://www.w3.org/2000/svg" xmlns:xlink="http://www.w3.org/1999/xlink" width="29" height="21" viewBox="0 0 29 21" fill="none"><g opacity="1" transform="translate(0 0)  rotate(0 14.5 10.474630385721145)"><path id="分组 1" fill-rule="evenodd" style="fill:#FF9159" transform="translate(0 0)  rotate(0 14.5 10.474630385721145)" opacity="1" d="M7.98468 2.92251L2.83468 10.2125C2.72468 10.3725 2.72468 10.5825 2.83468 10.7325L7.98468 18.0225C8.07468 18.1425 8.21468 18.2125 8.36468 18.2125L25.7847 18.2125C26.0347 18.2125 26.2447 18.0125 26.2447 17.7625L26.2447 3.19251C26.2447 2.93251 26.0347 2.73251 25.7847 2.73251L8.36468 2.73251C8.21468 2.73251 8.07468 2.80251 7.98468 2.92251Z M0.58 8.65L0.58 8.65C-0.19 9.75 -0.19 11.2 0.58 12.3L5.73 19.59C6.33 20.44 7.31 20.95 8.36 20.95L25.78 20.95L25.78 20.95C27.56 20.95 29 19.52 29 17.76L29 3.19C29 1.43 27.56 0 25.78 0L8.36 0C7.31 0 6.33 0.51 5.73 1.36L0.58 8.65Z " /><path id="路径 3" fill-rule="evenodd" style="fill:#FF9159" transform="translate(11.058926294350186 5.243605290821379)  rotate(0 5.278051731235085 5.230754969203061)" opacity="1" d="M9.18,10.46C9.73,10.46 10.24,10.13 10.45,9.62C10.66,9.11 10.55,8.52 10.15,8.13L2.35,0.4C2.1,0.14 1.74,0 1.38,0C1.01,0 0.66,0.14 0.4,0.4C0.15,0.66 0,1 0,1.37C0,1.73 0.15,2.08 0.4,2.33L8.2,10.06C8.46,10.32 8.81,10.46 9.18,10.46Z " /><path id="路径 4" fill-rule="evenodd" style="fill:#FF9159" transform="translate(11.058193439770319 5.244060702418047)  rotate(0 5.278051770677203 5.230754970149973)" opacity="1" d="M10.15,0.4C9.89,0.14 9.54,0 9.18,0C8.81,0 8.46,0.14 8.2,0.4L0.4,8.13C0.01,8.52 -0.11,9.11 0.1,9.62C0.32,10.13 0.82,10.46 1.38,10.46L1.38,10.46C1.75,10.46 2.1,10.32 2.35,10.06L10.15,2.33C10.41,2.08 10.56,1.73 10.56,1.37C10.56,1 10.41,0.66 10.15,0.4Z " /></g></svg>