<svg xmlns="http://www.w3.org/2000/svg" xmlns:xlink="http://www.w3.org/1999/xlink" width="15" height="15" viewBox="0 0 15 15" fill="none"><g opacity="1" transform="translate(0 0)  rotate(0 7.500000000000026 7.499999999999949)"><path id="路径 1" fill-rule="evenodd" style="fill:#FF9159" transform="translate(6.0018321206451635 9.118956005062362)  rotate(0 0.4885476041619816 2.1821979207808955)" opacity="1" d="M0.98,3.79L0.98,0.57C0.98,0.26 0.76,0 0.49,0C0.22,0 0,0.26 0,0.57L0,3.79C0,4.11 0.22,4.36 0.49,4.36C0.76,4.36 0.98,4.11 0.98,3.79Z " /><path id="路径 2" fill-rule="evenodd" style="fill:#FF9159" transform="translate(4.09250211023319 12.839612989477363)  rotate(0 0.5428951518853109 0.6353674350878502)" opacity="1" d="M0,0.64C0,0.99 0.24,1.27 0.54,1.27C0.84,1.27 1.09,0.99 1.09,0.64C1.09,0.28 0.84,0 0.54,0C0.24,0 0,0.28 0,0.64Z " /><path id="路径 3" fill-rule="evenodd" style="fill:#FF9159" transform="translate(6.002067976977595 13.72864103653057)  rotate(0 0.5428951518853109 0.6356794817346642)" opacity="1" d="M0,0.64C0,0.99 0.24,1.27 0.54,1.27C0.84,1.27 1.09,0.99 1.09,0.64C1.09,0.28 0.84,0 0.54,0C0.24,0 0,0.28 0,0.64Z " /><path id="路径 4" fill-rule="evenodd" style="fill:#FF9159" transform="translate(4.147121774651824 8.229626678843362)  rotate(0 0.4882845636367028 2.1824991999467014)" opacity="1" d="M0.98,3.79L0.98,0.57C0.98,0.26 0.76,0 0.49,0C0.22,0 0,0.26 0,0.57L0,3.79C0,4.11 0.22,4.36 0.49,4.36C0.76,4.36 0.98,4.11 0.98,3.79Z " /><path id="路径 5" fill-rule="evenodd" style="fill:#FF9159" transform="translate(9.821199657285751 13.72864103653057)  rotate(0 0.5428951523913417 0.6356794817346642)" opacity="1" d="M0,0.64C0,0.99 0.24,1.27 0.54,1.27C0.84,1.27 1.09,0.99 1.09,0.64C1.09,0.28 0.84,0 0.54,0C0.24,0 0,0.28 0,0.64Z " /><path id="路径 6" fill-rule="evenodd" style="fill:#FF9159" transform="translate(9.875764882411113 9.118956005062362)  rotate(0 0.48828457250014906 2.1821979207808955)" opacity="1" d="M0.98,3.79L0.98,0.57C0.98,0.26 0.76,0 0.49,0C0.22,0 0,0.26 0,0.57L0,3.79C0,4.11 0.22,4.36 0.49,4.36C0.76,4.36 0.98,4.11 0.98,3.79Z " /><path id="路径 7" fill-rule="evenodd" style="fill:#FF9159" transform="translate(0 0)  rotate(0 7.500000000000026 6.067690181537526)" opacity="1" d="M12.57,4.08C11.95,1.64 10.06,0 7.87,0C6.06,0 4.4,1.15 3.54,3.01L3.53,3.04L3.5,3.05C1.51,3.33 0,5.31 0,7.66C0,9.74 1.2,11.57 2.92,12.13C2.93,12.14 2.94,12.13 2.96,12.13L2.97,12.13L2.98,12.13C3,12.13 3.01,12.14 3.03,12.14C3.28,12.14 3.49,11.89 3.49,11.6C3.49,11.38 3.37,11.18 3.2,11.1L3.18,11.09C3.17,11.08 3.16,11.07 3.14,11.06C1.75,10.5 0.98,9.29 0.98,7.66C0.98,5.81 2.21,4.28 3.78,4.16C4.69,4.21 5.62,4.8 6.1,5.62L6.12,5.64C6.21,5.8 6.36,5.9 6.52,5.9C6.79,5.9 7.01,5.64 7.01,5.33C7.01,5.26 7,5.19 6.98,5.13C6.98,5.11 6.97,5.09 6.96,5.08C6.95,5.06 6.94,5.05 6.94,5.03L6.9,4.98C6.9,4.97 6.9,4.97 6.89,4.96L6.89,4.96L6.87,4.93C6.32,4.01 5.59,3.42 4.7,3.17L4.61,3.15L4.66,3.07C5.4,1.86 6.6,1.14 7.87,1.14C9.71,1.14 11.29,2.6 11.7,4.69L11.76,4.95C11.76,5 11.79,5.03 11.83,5.05L12.05,5.11C13.21,5.47 14.02,6.7 14.02,8.09C14.02,9.53 13.29,10.73 12.19,11.09C12.18,11.09 12.17,11.1 12.16,11.1C11.99,11.19 11.89,11.38 11.89,11.6C11.89,11.89 12.09,12.14 12.35,12.14C12.37,12.14 12.38,12.13 12.4,12.13C12.42,12.13 12.43,12.12 12.44,12.12C12.49,12.1 12.52,12.09 12.54,12.08C14.02,11.49 15,9.89 15,8.09C15,6.32 14.04,4.72 12.61,4.12L12.58,4.11L12.57,4.08Z " /><path id="路径 8" fill-rule="evenodd" style="fill:#FF9159" transform="translate(7.965872520598448 8.229626678843362)  rotate(0 0.4885475958604402 2.1824991999467014)" opacity="1" d="M0.98,3.79L0.98,0.57C0.98,0.26 0.76,0 0.49,0C0.22,0 0,0.26 0,0.57L0,3.79C0,4.11 0.22,4.36 0.49,4.36C0.76,4.36 0.98,4.11 0.98,3.79Z " /><path id="路径 9" fill-rule="evenodd" style="fill:#FF9159" transform="translate(7.911633808268221 12.839612989477363)  rotate(0 0.5428951518853113 0.6353674350878502)" opacity="1" d="M0,0.64C0,0.99 0.24,1.27 0.54,1.27C0.84,1.27 1.09,0.99 1.09,0.64C1.09,0.28 0.84,0 0.54,0C0.24,0 0,0.28 0,0.64Z " /></g></svg>