<svg xmlns="http://www.w3.org/2000/svg" xmlns:xlink="http://www.w3.org/1999/xlink" width="15" height="15" viewBox="0 0 15 15" fill="none"><g opacity="1" transform="translate(0 0)  rotate(0 7.499999999999974 7.499999999999986)"><path id="路径 1" fill-rule="evenodd" style="fill:#FF9159" transform="translate(0 0)  rotate(0 7.499999999999974 5.175608402922515)" opacity="1" d="M10.61,9.97C10.61,10.18 10.76,10.35 10.94,10.35L12.34,10.35C13.04,10.35 13.7,10.04 14.21,9.47C14.72,8.91 15,8.15 15,7.35C15,6.56 14.73,5.82 14.24,5.25C13.82,4.78 13.29,4.48 12.72,4.38C12.6,1.94 10.79,0 8.59,0C7,0 5.56,1.03 4.88,2.61C4.57,2.38 4.21,2.25 3.83,2.25C2.81,2.25 1.97,3.18 1.97,4.34C1.97,4.37 1.97,4.41 1.98,4.44C0.83,4.79 0,5.98 0,7.34C0,9 1.2,10.35 2.68,10.35L3.46,10.35C3.64,10.35 3.8,10.18 3.8,9.97C3.8,9.76 3.64,9.59 3.46,9.59L2.68,9.59C1.57,9.59 0.67,8.58 0.67,7.34C0.67,6.23 1.41,5.27 2.4,5.12C2.49,5.1 2.58,5.04 2.63,4.95C2.68,4.86 2.7,4.75 2.68,4.65C2.66,4.55 2.65,4.44 2.65,4.34C2.65,3.6 3.18,3.01 3.83,3.01C4.19,3.01 4.52,3.18 4.75,3.5C4.82,3.6 4.95,3.65 5.07,3.63C5.19,3.61 5.29,3.51 5.33,3.38C5.8,1.81 7.12,0.76 8.59,0.76C10.5,0.76 12.05,2.5 12.05,4.64C12.05,4.66 12.05,4.67 12.05,4.69C12.05,4.7 12.05,4.71 12.05,4.72C12.05,4.93 12.19,5.1 12.38,5.11C12.9,5.12 13.39,5.36 13.76,5.78C14.12,6.21 14.33,6.76 14.33,7.35C14.33,7.95 14.12,8.51 13.74,8.94C13.36,9.36 12.86,9.59 12.34,9.59L10.94,9.59C10.76,9.59 10.61,9.76 10.61,9.97Z " /><path id="分组 1" fill-rule="evenodd" style="fill:#FF9159" transform="translate(4.14932594404149 4.5952488620435945)  rotate(0 3.258907905824146 5.202375568978189)" opacity="1" d="M6.41 4.51C6.51 4.41 6.54 4.24 6.49 4.1C6.44 3.96 6.32 3.86 6.18 3.86L4.48 3.86L5.38 0.49C5.43 0.32 5.37 0.15 5.24 0.06C5.11 -0.03 4.94 -0.02 4.83 0.1L0.11 4.95C0.01 5.06 -0.03 5.22 0.02 5.37C0.08 5.52 0.2 5.61 0.34 5.61L2.11 5.58L0.48 9.88C0.42 10.04 0.47 10.24 0.6 10.34C0.66 10.38 0.72 10.4 0.79 10.4C0.88 10.4 0.96 10.37 1.02 10.3L6.41 4.51Z M3.75842 4.46267C3.69842 4.37267 3.67842 4.24267 3.70842 4.13267L4.38842 1.58267L1.21842 4.83267L2.61842 4.81267C2.61842 4.81267 2.61842 4.81267 2.62842 4.81267C2.73842 4.81267 2.83842 4.87267 2.90842 4.98267C2.96842 5.08267 2.97842 5.22267 2.93842 5.34267L1.74842 8.48267L5.33842 4.61267L4.02842 4.61267C3.91842 4.61267 3.81842 4.56267 3.75842 4.46267Z " /></g></svg>