<svg xmlns="http://www.w3.org/2000/svg" xmlns:xlink="http://www.w3.org/1999/xlink" width="16" height="16" viewBox="0 0 16 16" fill="none"><g opacity="1" transform="translate(0 0)  rotate(0 7.500000000000025 7.499999999999974)"><path id="分组 1" fill-rule="evenodd" style="fill:#FF9159" transform="translate(3.171012634532308 3.1888971618840634)  rotate(0 4.320091752090636 4.320242616417878)" opacity="1" d="M0 4.32C0 6.7 1.94 8.64 4.32 8.64C6.7 8.64 8.64 6.7 8.64 4.32C8.64 1.94 6.7 0 4.32 0C1.94 0 0 1.94 0 4.32Z M7.61187 4.32193C7.61187 2.51193 6.13187 1.03193 4.32187 1.03193C2.51187 1.03193 1.03187 2.51193 1.03187 4.32193C1.03187 6.13193 2.51187 7.61193 4.32187 7.61193C6.13187 7.61193 7.61187 6.13193 7.61187 4.32193Z " /><path id="路径 3" fill-rule="evenodd" style="fill:#FF9159" transform="translate(6.953718705334025 0)  rotate(0 0.5462903318740768 1.1496611435809871)" opacity="1" d="M1.09,1.75L1.09,0.55C1.09,0.24 0.85,0 0.55,0C0.24,0 0,0.24 0,0.55L0,1.75C0,2.05 0.24,2.3 0.55,2.3C0.85,2.3 1.09,2.05 1.09,1.75Z " /><path id="路径 4" fill-rule="evenodd" style="fill:#FF9159" transform="translate(6.953718705334025 12.700677712837976)  rotate(0 0.5462903318740762 1.1496611435809863)" opacity="1" d="M0,0.55L0,1.75C0,2.05 0.24,2.3 0.55,2.3C0.85,2.3 1.09,2.05 1.09,1.75L1.09,0.55C1.09,0.24 0.85,0 0.55,0C0.24,0 0,0.24 0,0.55Z " /><path id="路径 5" fill-rule="evenodd" style="fill:#FF9159" transform="translate(12.700758005946767 6.953943464965783)  rotate(0 1.1496209970266416 0.546047497510519)" opacity="1" d="M0.55,0C0.24,0 0,0.24 0,0.55C0,0.85 0.24,1.09 0.55,1.09L1.75,1.09C2.05,1.09 2.3,0.85 2.3,0.55C2.3,0.24 2.05,0 1.75,0L0.55,0Z " /><path id="路径 6" fill-rule="evenodd" style="fill:#FF9159" transform="translate(0 6.953943464965783)  rotate(0 1.1496209970266427 0.546047497510519)" opacity="1" d="M1.75,0L0.55,0C0.24,0 0,0.24 0,0.55C0,0.85 0.24,1.09 0.55,1.09L1.75,1.09C2.05,1.09 2.3,0.85 2.3,0.55C2.3,0.24 2.05,0 1.75,0Z " /><path id="路径 7" fill-rule="evenodd" style="fill:#FF9159" transform="translate(11.01741796299635 11.03258232643336)  rotate(0 0.9726252824212872 0.9698438292434282)" opacity="1" d="M0.16,0.15C0.06,0.26 0,0.39 0,0.54C0,0.69 0.06,0.82 0.16,0.93L1.01,1.78C1.12,1.88 1.25,1.94 1.4,1.94C1.55,1.94 1.68,1.88 1.79,1.78C2,1.57 2,1.22 1.79,1.01L0.93,0.15C0.73,-0.05 0.37,-0.05 0.16,0.15Z " /><path id="路径 8" fill-rule="evenodd" style="fill:#FF9159" transform="translate(2.03734958187887 2.051218366295978)  rotate(0 0.9726252735958886 0.9702038551099403)" opacity="1" d="M1.4,1.94C1.54,1.94 1.68,1.88 1.79,1.78C1.89,1.68 1.95,1.54 1.95,1.39C1.95,1.25 1.89,1.11 1.79,1.01L0.93,0.15C0.73,-0.05 0.37,-0.05 0.16,0.15C-0.05,0.37 -0.05,0.71 0.16,0.93L1.01,1.78C1.12,1.88 1.25,1.94 1.4,1.94Z " /><path id="路径 9" fill-rule="evenodd" style="fill:#FF9159" transform="translate(11.00851333006198 2.051218366295978)  rotate(0 0.9730181185596112 0.97020385510994)" opacity="1" d="M0,1.39C0,1.54 0.06,1.68 0.16,1.78C0.26,1.88 0.4,1.94 0.55,1.94C0.69,1.94 0.83,1.88 0.93,1.78L1.79,0.93C1.89,0.82 1.95,0.69 1.95,0.54C1.95,0.4 1.89,0.26 1.79,0.15C1.58,-0.05 1.22,-0.05 1.01,0.15L0.16,1.01C0.06,1.11 0,1.25 0,1.39Z " /><path id="路径 10" fill-rule="evenodd" style="fill:#FF9159" transform="translate(2.0284449136428937 11.032568783408383)  rotate(0 0.972494331158246 0.9698506007559141)" opacity="1" d="M0.16,1.01C-0.05,1.22 -0.05,1.57 0.16,1.78C0.26,1.88 0.4,1.94 0.55,1.94C0.69,1.94 0.83,1.88 0.93,1.78L1.79,0.93C2,0.71 2,0.37 1.79,0.15C1.58,-0.05 1.22,-0.05 1.01,0.15L0.16,1.01Z " /></g></svg>