<svg xmlns="http://www.w3.org/2000/svg" xmlns:xlink="http://www.w3.org/1999/xlink" width="15" height="16" viewBox="0 0 15 16" fill="none"><g opacity="1" transform="translate(0 0)  rotate(0 7.500000000000026 7.500000000000013)"><path id="路径 1" fill-rule="evenodd" style="fill:#FF9159" transform="translate(2.338871475016037 7.202717479032222)  rotate(0 0.6230801355710281 0.7588577589899831)" opacity="1" d="M1.02,1.34C1.16,1.2 1.25,0.99 1.25,0.76C1.25,0.51 1.15,0.29 1,0.15C0.89,0.06 0.76,0 0.62,0C0.46,0 0.32,0.07 0.21,0.19C0.08,0.33 0,0.53 0,0.76C0,0.92 0.04,1.06 0.11,1.18C0.22,1.39 0.41,1.52 0.62,1.52C0.78,1.52 0.92,1.45 1.02,1.34Z " /><path id="路径 2" fill-rule="evenodd" style="fill:#FF9159" transform="translate(4.358694771860494 7.196399966331096)  rotate(0 0.6230801274478643 0.7588577688832958)" opacity="1" d="M1.25,0.76C1.25,0.53 1.16,0.32 1.03,0.18C0.92,0.07 0.78,0 0.62,0C0.44,0 0.28,0.09 0.16,0.24C0.06,0.38 0,0.56 0,0.76C0,0.97 0.07,1.16 0.18,1.3C0.3,1.43 0.45,1.52 0.62,1.52C0.8,1.52 0.95,1.43 1.06,1.3C1.18,1.16 1.25,0.97 1.25,0.76Z " /><path id="路径 3" fill-rule="evenodd" style="fill:#FF9159" transform="translate(6.388892339981399 7.202717479032222)  rotate(0 0.6230801355710281 0.7588577589899831)" opacity="1" d="M1.07,1.28C1.18,1.15 1.25,0.96 1.25,0.76C1.25,0.54 1.17,0.34 1.05,0.2C0.94,0.08 0.79,0 0.62,0C0.45,0 0.3,0.08 0.18,0.22C0.07,0.36 0,0.55 0,0.76C0,0.96 0.06,1.14 0.16,1.27C0.28,1.42 0.44,1.52 0.62,1.52C0.8,1.52 0.96,1.43 1.07,1.28Z " /><path id="路径 4" fill-rule="evenodd" style="fill:#FF9159" transform="translate(8.408715636825855 7.196399966331096)  rotate(0 0.6230801355710274 0.7588577688832947)" opacity="1" d="M1.05,1.32C1.17,1.18 1.25,0.98 1.25,0.76C1.25,0.54 1.17,0.33 1.04,0.2C0.93,0.07 0.78,0 0.62,0C0.46,0 0.32,0.07 0.21,0.19C0.08,0.33 0,0.53 0,0.76C0,0.96 0.06,1.14 0.17,1.28C0.28,1.43 0.44,1.52 0.62,1.52C0.79,1.52 0.93,1.44 1.05,1.32Z " /><path id="路径 5" fill-rule="evenodd" style="fill:#FF9159" transform="translate(0.033693047860246836 9.283258850546785)  rotate(0 0.6230801355710281 0.7588577688832964)" opacity="1" d="M0.62,0C0.44,0 0.27,0.1 0.15,0.26C0.06,0.39 0,0.57 0,0.76C0,0.97 0.07,1.16 0.18,1.3C0.3,1.43 0.45,1.52 0.62,1.52C0.78,1.52 0.92,1.45 1.03,1.33C1.16,1.19 1.25,0.99 1.25,0.76C1.25,0.55 1.18,0.36 1.06,0.22C0.95,0.08 0.8,0 0.62,0Z " /><path id="路径 6" fill-rule="evenodd" style="fill:#FF9159" transform="translate(2.0587034884660826 9.289595318833133)  rotate(0 0.6230801355710285 0.7588577589899871)" opacity="1" d="M0,0.76C0,0.96 0.06,1.13 0.16,1.27C0.28,1.42 0.44,1.52 0.62,1.52C0.79,1.52 0.95,1.44 1.06,1.3C1.17,1.16 1.25,0.97 1.25,0.76C1.25,0.55 1.18,0.37 1.07,0.23C0.96,0.09 0.8,0 0.62,0C0.44,0 0.28,0.1 0.16,0.25C0.06,0.38 0,0.56 0,0.76Z " /><path id="路径 7" fill-rule="evenodd" style="fill:#FF9159" transform="translate(4.085925866591267 7.3843120845971715)  rotate(0 4.544427168762891 1.6167275243843433)" opacity="1" d="M7.77,3.23C8.5,3.23 9.09,2.51 9.09,1.62C9.09,0.74 8.51,0.02 7.79,0L7.79,0L7.77,0C7.77,0 7.76,0 7.76,0C7.76,0 7.76,0 7.76,0L6.85,0C6.84,0 6.83,0 6.82,0C6.56,0 6.35,0.26 6.35,0.57C6.35,0.89 6.56,1.15 6.82,1.15C6.82,1.15 6.82,1.15 6.83,1.15L6.83,1.15L7.75,1.15L7.75,1.15C7.75,1.15 7.75,1.15 7.76,1.15L7.77,1.15C7.98,1.15 8.15,1.36 8.15,1.62C8.15,1.88 7.98,2.09 7.76,2.09C7.76,2.09 7.75,2.09 7.75,2.09L7.75,2.09L0.54,2.09C0.52,2.09 0.5,2.09 0.47,2.09C0.21,2.09 0,2.34 0,2.66C0,2.98 0.21,3.23 0.47,3.23C0.48,3.23 0.49,3.23 0.5,3.23L7.77,3.23L7.77,3.23Z " /><path id="路径 8" fill-rule="evenodd" style="fill:#FF9159" transform="translate(1.170814287154207 11.389108124676483)  rotate(0 0.6230801355710291 0.7588577589899848)" opacity="1" d="M0.62,0C0.43,0 0.26,0.11 0.14,0.28C0.05,0.41 0,0.58 0,0.76C0,0.97 0.07,1.16 0.18,1.3C0.3,1.43 0.45,1.52 0.62,1.52C0.79,1.52 0.94,1.44 1.05,1.31C1.17,1.17 1.25,0.98 1.25,0.76C1.25,0.52 1.15,0.3 1.01,0.17C0.9,0.06 0.77,0 0.62,0Z " /><path id="路径 9" fill-rule="evenodd" style="fill:#FF9159" transform="translate(3.1906375839986643 11.395425597804358)  rotate(0 0.6230801355710287 0.7588577688832953)" opacity="1" d="M0.62,0C0.43,0 0.26,0.11 0.15,0.27C0.05,0.4 0,0.57 0,0.76C0,0.94 0.05,1.11 0.14,1.25C0.26,1.41 0.43,1.52 0.62,1.52C0.77,1.52 0.91,1.45 1.02,1.34C1.16,1.2 1.25,0.99 1.25,0.76C1.25,0.53 1.16,0.32 1.02,0.18C0.91,0.07 0.78,0 0.62,0Z " /><path id="路径 10" fill-rule="evenodd" style="fill:#FF9159" transform="translate(5.205258173099774 11.395425597804358)  rotate(0 0.6230801355710281 0.7588577688832953)" opacity="1" d="M0.62,0C0.43,0 0.26,0.11 0.15,0.27C0.05,0.4 0,0.57 0,0.76C0,0.94 0.05,1.11 0.14,1.24C0.25,1.41 0.43,1.52 0.62,1.52C0.79,1.52 0.93,1.44 1.04,1.32C1.17,1.18 1.25,0.98 1.25,0.76C1.25,0.5 1.14,0.28 0.99,0.14C0.88,0.05 0.76,0 0.62,0Z " /><path id="路径 11" fill-rule="evenodd" style="fill:#FF9159" transform="translate(7.248041982509113 11.577020262729171)  rotate(0 3.788950290435581 1.616736962603717)" opacity="1" d="M6.3,0L6.3,0L0.5,0C0.49,0 0.48,0 0.47,0C0.21,0 0,0.26 0,0.57C0,0.89 0.21,1.15 0.47,1.15C0.5,1.15 0.52,1.14 0.54,1.14L6.24,1.14L6.24,1.15C6.24,1.15 6.25,1.15 6.25,1.15C6.46,1.15 6.64,1.36 6.64,1.62C6.64,1.87 6.47,2.08 6.26,2.09L6.25,2.09C6.24,2.09 6.24,2.09 6.24,2.09L6.24,2.09L5.78,2.09L5.78,2.09C5.78,2.09 5.78,2.09 5.77,2.09C5.51,2.09 5.3,2.34 5.3,2.66C5.3,2.98 5.51,3.23 5.77,3.23C5.79,3.23 5.8,3.23 5.81,3.23L6.25,3.23C6.25,3.23 6.25,3.23 6.25,3.23C6.25,3.23 6.26,3.23 6.26,3.23L6.28,3.23L6.28,3.23C7,3.21 7.58,2.5 7.58,1.62C7.58,0.75 7.01,0.04 6.3,0Z " /><path id="路径 12" fill-rule="evenodd" style="fill:#FF9159" transform="translate(10.527406172224362 13.469649496191023)  rotate(0 0.6230801355710291 0.7588577688832964)" opacity="1" d="M0.62,0C0.45,0 0.29,0.09 0.17,0.23C0.07,0.37 0,0.56 0,0.76C0,0.95 0.06,1.12 0.15,1.25C0.26,1.41 0.43,1.52 0.62,1.52C0.78,1.52 0.92,1.45 1.03,1.33C1.16,1.19 1.25,0.99 1.25,0.76C1.25,0.51 1.15,0.28 0.99,0.15C0.89,0.05 0.76,0 0.62,0Z " /><path id="路径 13" fill-rule="evenodd" style="fill:#FF9159" transform="translate(8.51277003538761 13.475966969318923)  rotate(0 0.6230801355710281 0.7588577589899836)" opacity="1" d="M0.62,0C0.45,0 0.3,0.08 0.19,0.21C0.07,0.35 0,0.54 0,0.76C0,0.96 0.06,1.14 0.17,1.28C0.28,1.43 0.44,1.52 0.62,1.52C0.77,1.52 0.91,1.45 1.02,1.34C1.16,1.2 1.25,0.99 1.25,0.76C1.25,0.5 1.14,0.27 0.98,0.14C0.88,0.05 0.76,0 0.62,0Z " /><path id="路径 14" fill-rule="evenodd" style="fill:#FF9159" transform="translate(6.477369727030722 13.482284462233412)  rotate(0 0.6230801355710281 0.7588577688832964)" opacity="1" d="M0.21,0.19C0.08,0.33 0,0.53 0,0.76C0,0.99 0.08,1.19 0.21,1.33C0.32,1.45 0.47,1.52 0.62,1.52C0.8,1.52 0.96,1.43 1.07,1.28C1.18,1.15 1.25,0.96 1.25,0.76C1.25,0.57 1.19,0.4 1.1,0.27C0.98,0.1 0.81,0 0.62,0C0.46,0 0.32,0.07 0.21,0.19Z " /><path id="路径 15" fill-rule="evenodd" style="fill:#FF9159" transform="translate(4.452359286424877 13.482284462233435)  rotate(0 0.6230801355710281 0.7588577688832953)" opacity="1" d="M0.62,0C0.43,0 0.27,0.1 0.15,0.26C0.06,0.4 0,0.57 0,0.76C0,0.96 0.06,1.13 0.16,1.27C0.28,1.42 0.44,1.52 0.62,1.52C0.77,1.52 0.91,1.45 1.02,1.34C1.16,1.21 1.25,0.99 1.25,0.76C1.25,0.53 1.16,0.32 1.03,0.18C0.92,0.07 0.78,0 0.62,0Z " /><path id="路径 16" fill-rule="evenodd" style="fill:#FF9159" transform="translate(2.4325515698087075 13.475966969318923)  rotate(0 0.6230801355710281 0.7588577688832953)" opacity="1" d="M0.62,0C0.45,0 0.3,0.08 0.18,0.22C0.07,0.36 0,0.55 0,0.76C0,0.95 0.06,1.12 0.15,1.26C0.27,1.42 0.43,1.52 0.62,1.52C0.79,1.52 0.94,1.44 1.05,1.31C1.17,1.18 1.25,0.98 1.25,0.76C1.25,0.53 1.16,0.32 1.03,0.18C0.92,0.07 0.78,0 0.62,0Z " /><path id="路径 17" fill-rule="evenodd" style="fill:#FF9159" transform="translate(0 0)  rotate(0 7.500000000000026 3.9820207560096845)" opacity="1" d="M4.96,2.25C4.97,2.24 4.98,2.24 4.98,2.23C5.6,1.65 6.38,1.3 7.23,1.3C8.87,1.3 10.27,2.62 10.74,4.44C10.93,4.39 11.12,4.37 11.31,4.37C11.49,4.37 11.67,4.39 11.85,4.43C11.85,4.43 11.85,4.43 11.85,4.43C11.91,4.45 11.97,4.47 12.03,4.49C12.04,4.49 12.04,4.49 12.05,4.49C12.06,4.5 12.08,4.5 12.09,4.51C12.1,4.51 12.11,4.51 12.11,4.52C12.12,4.52 12.13,4.53 12.14,4.53C12.15,4.53 12.16,4.54 12.18,4.54C12.18,4.54 12.18,4.55 12.19,4.55C13.23,4.99 13.97,6.19 13.97,7.61C13.97,7.73 13.97,7.85 13.96,7.96L14.99,7.96C15,7.85 15,7.73 15,7.61C15,5.16 13.41,3.16 11.42,3.06C10.61,1.24 9.04,0 7.22,0C5.26,0 3.58,1.44 2.85,3.5C1.22,3.92 0,5.68 0,7.79C0,7.85 0,7.91 0,7.96L1.11,7.96C1.11,7.91 1.11,7.86 1.11,7.81C1.11,6.14 2.22,4.78 3.59,4.78C3.6,4.78 3.62,4.78 3.63,4.78C3.72,4.3 3.88,3.85 4.08,3.44C4.08,3.44 4.08,3.44 4.08,3.44C4.3,3.02 4.57,2.64 4.88,2.33C4.88,2.33 4.88,2.33 4.88,2.33C4.9,2.31 4.92,2.29 4.94,2.28C4.94,2.27 4.95,2.26 4.96,2.25Z " /></g></svg>