<svg xmlns="http://www.w3.org/2000/svg" xmlns:xlink="http://www.w3.org/1999/xlink" width="17" height="16" viewBox="0 0 17 16" fill="none"><g opacity="1" transform="translate(0 0)  rotate(0 8.500000000000002 7.500000000000049)"><path id="路径 1" fill-rule="evenodd" style="fill:#FF9159" transform="translate(0.5354835084806795 10.092196132879234)  rotate(0 3.3959046875341197 1.1973310618642128)" opacity="1" d="M6.33,0.33C2.98,-0.68 0.99,0.9 0.31,1.35C0.3,1.36 0.29,1.37 0.28,1.38C0.21,1.42 0.16,1.46 0.15,1.47L0.15,1.47C0.06,1.57 0,1.7 0,1.85C0,2.15 0.23,2.39 0.51,2.39C0.58,2.39 0.65,2.37 0.72,2.34L0.72,2.35C0.75,2.32 2.83,0.41 6.22,1.39L6.22,1.38C6.24,1.38 6.27,1.39 6.29,1.39C6.57,1.39 6.79,1.15 6.79,0.86C6.79,0.65 6.68,0.48 6.52,0.39L6.52,0.38C6.52,0.38 6.51,0.38 6.51,0.38C6.45,0.35 6.39,0.33 6.33,0.33Z " /><path id="路径 2" fill-rule="evenodd" style="fill:#FF9159" transform="translate(0.5354634492180232 12.28368899907687)  rotate(0 5.710096904220738 1.3581555004616161)" opacity="1" d="M10.87,2.72L10.87,2.7C10.88,2.71 10.9,2.72 10.92,2.72C11.2,2.72 11.42,2.47 11.42,2.17C11.42,1.87 11.2,1.63 10.92,1.63C10.92,1.63 10.92,1.63 10.92,1.63C10.02,1.54 9.46,1.34 8.19,0.79C4.26,-1.05 1.06,0.83 0.31,1.33C0.3,1.34 0.29,1.35 0.28,1.36C0.21,1.4 0.16,1.44 0.15,1.45L0.15,1.45C0.06,1.55 0,1.69 0,1.84C0,2.14 0.23,2.39 0.51,2.39C0.58,2.39 0.65,2.37 0.72,2.33L0.72,2.34C0.75,2.31 3.9,-0.03 7.8,1.79C9.18,2.4 9.86,2.61 10.87,2.72Z " /><path id="路径 3" fill-rule="evenodd" style="fill:#FF9159" transform="translate(7.673295458520525 10.821872534504985)  rotate(0 0.5012387651034363 0.5365300191520641)" opacity="1" d="M0.5,0C0.22,0 0,0.24 0,0.54C0,0.83 0.22,1.07 0.5,1.07C0.78,1.07 1,0.83 1,0.54C1,0.24 0.78,0 0.5,0Z " /><path id="路径 4" fill-rule="evenodd" style="fill:#FF9159" transform="translate(9.019285015853022 10.858203880111835)  rotate(0 3.7226357871473463 1.0364215740878617)" opacity="1" d="M0.5,0.38C0.22,0.38 0,0.62 0,0.92C0,1.13 0.12,1.3 0.28,1.39L0.27,1.41C1.67,1.92 2.76,2.07 3.73,2.07C5.78,2.07 6.9,1.26 7.19,1C7.34,0.91 7.45,0.74 7.45,0.54C7.45,0.24 7.22,0 6.94,0C6.8,0 6.68,0.06 6.59,0.15L6.59,0.15C6.57,0.17 4.8,1.84 0.72,0.44C0.66,0.4 0.58,0.38 0.5,0.38Z " /><path id="路径 5" fill-rule="evenodd" style="fill:#FF9159" transform="translate(0 0)  rotate(0 8.500000000000002 5.485646423272856)" opacity="1" d="M16.81,10.61C16.96,10.11 17,9.75 17,9.19C17,7.15 15.88,5.35 14.24,4.71C13.58,1.92 11.43,0 8.92,0C6.86,0 4.96,1.36 4.01,3.5C1.74,3.77 0,5.99 0,8.69C0,9.31 0.1,9.89 0.27,10.44C0.28,10.51 0.3,10.58 0.33,10.64C0.33,10.64 0.33,10.64 0.33,10.64C0.41,10.79 0.55,10.9 0.71,10.9C0.96,10.9 1.16,10.66 1.16,10.37C1.16,10.31 1.15,10.26 1.13,10.2L1.13,10.2C1.13,10.2 1.13,10.2 1.13,10.2C1.12,10.18 1.12,10.16 1.11,10.15C0.97,9.69 0.88,9.21 0.88,8.69C0.88,6.47 2.35,4.65 4.24,4.51C5.33,4.58 6.43,5.28 6.99,6.25L7,6.25C7.07,6.41 7.21,6.52 7.37,6.52C7.62,6.52 7.82,6.29 7.82,6C7.82,5.93 7.8,5.86 7.78,5.8L7.78,5.79C7.76,5.76 7.74,5.73 7.72,5.7C7.71,5.68 7.7,5.65 7.68,5.63C7.01,4.51 6.11,3.82 4.98,3.59C5.82,2.02 7.31,1.03 8.92,1.03C11.1,1.03 12.96,2.76 13.45,5.24L13.51,5.54L13.77,5.62C15.15,6.05 16.12,7.51 16.12,9.19C16.12,9.59 16.06,9.98 15.95,10.35L15.96,10.35C15.96,10.38 15.94,10.42 15.94,10.45C15.94,10.74 16.14,10.97 16.39,10.97C16.58,10.97 16.75,10.82 16.8,10.61L16.81,10.61Z " /><path id="路径 6" fill-rule="evenodd" style="fill:#FF9159" transform="translate(12.290151172811798 13.914746100150655)  rotate(0 0.5012387651034359 0.5425928355155033)" opacity="1" d="M0,0.54C0,0.84 0.22,1.09 0.5,1.09C0.78,1.09 1,0.84 1,0.54C1,0.24 0.78,0 0.5,0C0.22,0 0,0.24 0,0.54Z " /><path id="路径 7" fill-rule="evenodd" style="fill:#FF9159" transform="translate(13.583618710881552 13.024571264318443)  rotate(0 1.440468949446808 0.9877030186027067)" opacity="1" d="M2.37,0C2.24,0 2.12,0.06 2.03,0.15L2.02,0.15C2.01,0.16 1.54,0.7 0.32,0.92L0.33,0.93C0.14,1.01 0,1.2 0,1.43C0,1.73 0.22,1.98 0.5,1.98C0.52,1.98 0.53,1.97 0.55,1.96L0.55,1.98C1.79,1.74 2.4,1.21 2.63,1.01C2.78,0.92 2.88,0.75 2.88,0.55C2.88,0.25 2.65,0 2.37,0Z " /></g></svg>