<svg xmlns="http://www.w3.org/2000/svg" xmlns:xlink="http://www.w3.org/1999/xlink" width="15" height="16" viewBox="0 0 15 16" fill="none"><g opacity="1" transform="translate(0 0)  rotate(0 7.499999999999973 7.499999999999961)"><path id="分组 1" fill-rule="evenodd" style="fill:#FF9159" transform="translate(0 0)  rotate(0 7.499999999999973 5.81662855100208)" opacity="1" d="M9.39 11.14L9.39 10.96L9.55 11.06L9.55 11.06C9.79 11.19 10.08 11.11 10.22 10.88C10.35 10.64 10.27 10.34 10.04 10.2L10.04 10.2L9.87 10.11L11.35 10.11L11.35 10.1C13.37 10.05 15 8.38 15 6.32C15 4.28 13.41 2.62 11.42 2.54C10.61 1.03 9.04 0 7.22 0C5.26 0 3.58 1.2 2.85 2.91C1.22 3.26 0 4.72 0 6.47C0 8.48 1.61 10.11 3.6 10.11C3.64 10.11 3.69 10.11 3.73 10.11L7.9 10.11L7.73 10.2L7.73 10.2C7.5 10.34 7.42 10.64 7.55 10.88C7.69 11.11 7.98 11.19 8.21 11.06L8.21 11.06L8.41 10.94L8.41 11.14C8.41 11.41 8.63 11.63 8.9 11.63C9.17 11.63 9.38 11.41 9.39 11.14Z M7.22564 1.08352C6.38564 1.08352 5.60564 1.37352 4.98564 1.85352C4.97564 1.85352 4.96564 1.86352 4.96564 1.87352C4.95564 1.87352 4.94564 1.88352 4.93564 1.89352C4.91564 1.90352 4.90564 1.91352 4.88564 1.93352C4.88564 1.93352 4.88564 1.93352 4.87564 1.93352C4.56564 2.19352 4.29564 2.51352 4.08564 2.86352C4.08564 2.86352 4.08564 2.86352 4.08564 2.86352C3.87564 3.20352 3.72564 3.57352 3.63564 3.97352C3.61564 3.97352 3.60564 3.97352 3.58564 3.97352C2.21564 3.97352 1.10564 5.09352 1.10564 6.48352C1.10564 7.86352 2.20564 8.98352 3.56564 8.99352L3.56564 8.99352L3.58564 8.99352C3.58564 8.99352 3.58564 8.99352 3.58564 8.99352C3.58564 8.99352 3.58564 8.99352 3.59564 8.99352L11.0056 8.99352C11.0756 9.00352 11.3456 8.99352 11.3456 8.99352C12.7956 8.97352 13.9756 7.79352 13.9756 6.32352C13.9756 5.14352 13.2256 4.14352 12.1856 3.77352C12.1856 3.77352 12.1756 3.77352 12.1756 3.77352C12.1656 3.77352 12.1556 3.76352 12.1456 3.76352C12.1356 3.76352 12.1256 3.75352 12.1156 3.75352C12.1056 3.75352 12.0956 3.74352 12.0856 3.74352C12.0756 3.74352 12.0656 3.73352 12.0456 3.73352C12.0456 3.73352 12.0356 3.73352 12.0356 3.73352C11.9756 3.71352 11.9056 3.69352 11.8456 3.68352C11.8456 3.68352 11.8456 3.68352 11.8456 3.68352C11.6756 3.64352 11.4956 3.63352 11.3156 3.63352C11.1156 3.63352 10.9256 3.65352 10.7456 3.69352C10.2756 2.18352 8.87564 1.08352 7.22564 1.08352Z " /><path id="路径 3" fill-rule="evenodd" style="fill:#FF9159" transform="translate(3.3822167512595462 10.463545434489655)  rotate(0 1.125729094124805 1.253484271118777)" opacity="1" d="M0.59,0.5C0.4,0.39 0.16,0.45 0.05,0.64C-0.06,0.83 0.01,1.07 0.19,1.18L0.34,1.27L0.19,1.36C0.01,1.47 -0.05,1.71 0.05,1.9C0.16,2.09 0.4,2.15 0.59,2.04L0.75,1.95L0.75,2.11C0.75,2.33 0.92,2.51 1.14,2.51C1.35,2.51 1.53,2.33 1.53,2.11L1.53,1.96L1.66,2.04C1.85,2.15 2.09,2.09 2.2,1.9C2.31,1.71 2.24,1.47 2.06,1.36L1.91,1.27L2.06,1.18C2.24,1.07 2.31,0.83 2.2,0.64C2.09,0.45 1.85,0.39 1.66,0.5L1.53,0.58L1.53,0.39C1.53,0.18 1.35,0 1.14,0C0.92,0 0.75,0.18 0.75,0.39L0.75,0.59L0.59,0.5Z " /><path id="路径 4" fill-rule="evenodd" style="fill:#FF9159" transform="translate(6.279345552607479 12.914928274462726)  rotate(0 0.9363196258030552 1.0425358627685977)" opacity="1" d="M0.28,1.06L0.16,1.13C0.01,1.22 -0.05,1.42 0.04,1.58C0.13,1.74 0.33,1.79 0.49,1.7L0.62,1.62L0.62,1.76C0.62,1.94 0.77,2.09 0.95,2.09C1.13,2.09 1.27,1.94 1.27,1.76L1.27,1.63L1.38,1.7C1.54,1.79 1.74,1.73 1.83,1.58C1.92,1.42 1.87,1.22 1.71,1.13L1.59,1.06L1.71,0.99C1.87,0.89 1.92,0.69 1.83,0.54C1.74,0.38 1.54,0.32 1.38,0.41L1.27,0.48L1.27,0.33C1.27,0.15 1.13,0 0.95,0C0.77,0 0.62,0.15 0.62,0.33L0.62,0.49L0.49,0.41C0.33,0.32 0.13,0.38 0.04,0.53C-0.05,0.69 0.01,0.89 0.16,0.98L0.28,1.06Z " /><path id="路径 5" fill-rule="evenodd" style="fill:#FF9159" transform="translate(9.580361802624902 12.047352700967899)  rotate(0 0.9363196258030565 1.0425358627685977)" opacity="1" d="M1.27,0.48L1.27,0.33C1.27,0.15 1.13,0 0.95,0C0.77,0 0.62,0.15 0.62,0.33L0.62,0.49L0.49,0.41C0.33,0.32 0.13,0.38 0.04,0.53C-0.05,0.69 0.01,0.89 0.16,0.98L0.28,1.06L0.16,1.13C0.01,1.22 -0.05,1.42 0.04,1.58C0.13,1.74 0.33,1.79 0.49,1.7L0.62,1.62L0.62,1.76C0.62,1.94 0.77,2.09 0.95,2.09C1.13,2.09 1.27,1.94 1.27,1.76L1.27,1.63L1.38,1.7C1.54,1.79 1.74,1.73 1.83,1.58C1.92,1.42 1.87,1.22 1.71,1.13L1.59,1.06L1.71,0.99C1.87,0.89 1.92,0.69 1.83,0.54C1.74,0.38 1.54,0.32 1.38,0.41L1.27,0.48Z " /></g></svg>