<svg xmlns="http://www.w3.org/2000/svg" xmlns:xlink="http://www.w3.org/1999/xlink" width="15" height="15" viewBox="0 0 15 15" fill="none"><path id="分组 1" fill-rule="evenodd" style="fill:#FF9159" transform="translate(-1436 1414)  rotate(0 7.5 7.499999999999999)" opacity="1" d="M13.36 11.45C14.34 10.66 15 9.21 15 7.56C15 5.12 13.57 3.14 11.79 3.04C11.07 1.23 9.66 0 8.03 0C6.28 0 4.77 1.43 4.12 3.48C4.05 3.67 4.02 3.85 4.01 3.97C3.37 4.57 2.86 5.41 2.55 6.39C1.09 6.8 0 8.55 0 10.65C0 13.05 1.44 15 3.22 15C3.26 15 3.3 15 3.35 15L10.16 15L10.16 14.99C11.73 14.94 13.03 13.44 13.36 11.45Z M9.62015 7.44839C9.20015 5.63839 7.95015 4.32839 6.47015 4.32839C5.72015 4.32839 5.02015 4.66839 4.46015 5.24839C4.46015 5.25839 4.45015 5.25839 4.44015 5.26839C4.44015 5.27839 4.43015 5.28839 4.42015 5.29839C4.41015 5.30839 4.39015 5.32839 4.38015 5.33839C4.37015 5.34839 4.37015 5.34839 4.37015 5.34839C4.09015 5.65839 3.94015 5.90839 3.75015 6.32839C3.75015 6.32839 3.75015 6.32839 3.75015 6.32839C3.56015 6.73839 3.34015 7.30839 3.25015 7.78839C3.24015 7.78839 3.23015 7.78839 3.21015 7.78839C1.99015 7.78839 1.08015 9.00839 1.08015 10.6684C1.08015 12.3084 1.97015 13.5284 3.19015 13.5484L3.19015 13.5484L3.21015 13.5484C3.21015 13.5484 3.21015 13.5484 3.21015 13.5484C3.21015 13.5484 3.22015 13.5484 3.22015 13.5484L9.86015 13.5484C9.92015 13.5584 10.1601 13.5484 10.1601 13.5484C11.4701 13.5284 12.4301 12.2384 12.4301 10.4684C12.4301 9.05839 11.8501 7.98839 10.9201 7.54839C10.9101 7.54839 10.9101 7.54839 10.9101 7.54839C10.9001 7.53839 10.8901 7.53839 10.8801 7.52839C10.8701 7.52839 10.8601 7.52839 10.8501 7.51839C10.8401 7.51839 10.8401 7.51839 10.8301 7.50839C10.8201 7.50839 10.8001 7.49839 10.7901 7.49839C10.7901 7.49839 10.7801 7.49839 10.7801 7.48839C10.7201 7.46839 10.6701 7.44839 10.6101 7.43839C10.6101 7.43839 10.6101 7.43839 10.6101 7.43839C10.4601 7.39839 10.3001 7.36839 10.1301 7.36839C9.96015 7.36839 9.79015 7.39839 9.62015 7.44839Z M11.1863 4.53703C10.7663 2.72703 9.5163 1.41703 8.0363 1.41703C7.2763 1.41703 6.5863 1.75703 6.0263 2.33703C6.0263 2.34703 6.0163 2.34703 6.0063 2.35703C5.9963 2.36703 5.9963 2.37703 5.9863 2.38703C5.9663 2.39703 5.9563 2.41703 5.9363 2.42703C5.9363 2.43703 5.9363 2.43703 5.9363 2.43703C5.7463 2.64703 5.6163 2.83703 5.4863 3.06703C5.7963 2.96703 6.1263 2.90703 6.4663 2.90703C8.0963 2.90703 9.5063 4.13703 10.2263 5.94703C11.8163 6.03703 13.1263 7.62703 13.3863 9.69703C13.7663 9.15703 13.9863 8.40703 13.9863 7.55703C13.9863 6.14703 13.4063 5.07703 12.4763 4.63703C12.4763 4.63703 12.4763 4.63703 12.4663 4.63703C12.4563 4.62703 12.4463 4.62703 12.4363 4.61703C12.4363 4.61703 12.4263 4.61703 12.4163 4.60703C12.4063 4.60703 12.3963 4.60703 12.3963 4.59703C12.3763 4.59703 12.3663 4.58703 12.3563 4.58703C12.3463 4.58703 12.3463 4.58703 12.3463 4.57703C12.2863 4.55703 12.2363 4.53703 12.1763 4.52703C12.1763 4.52703 12.1763 4.52703 12.1763 4.52703C12.0163 4.48703 11.8563 4.45703 11.6963 4.45703C11.5163 4.45703 11.3463 4.48703 11.1863 4.53703Z " /></svg>