<svg xmlns="http://www.w3.org/2000/svg" xmlns:xlink="http://www.w3.org/1999/xlink" width="15" height="16" viewBox="0 0 15 16" fill="none"><path id="分组 1" fill-rule="evenodd" style="fill:#FF9159" transform="translate(-1597 1414)  rotate(0 7.500000000000013 7.5)" opacity="1" d="M4.09 2.14C3.19 2.14 2.45 2.96 2.45 3.98C2.45 4.08 2.46 4.18 2.48 4.27C1.1 4.36 0 5.64 0 7.21C0 8.84 1.17 10.16 2.61 10.16L12.39 10.16C13.83 10.16 15 8.84 15 7.21C15 5.66 13.93 4.39 12.58 4.28C12.51 1.91 10.78 0 8.66 0C8.6 0 8.54 0 8.46 0.01L8.41 0.01C8.36 0.01 8.31 0.02 8.25 0.02L8.22 0.03C6.9 0.2 5.75 1.1 5.16 2.44C5.16 2.44 5.15 2.44 5.15 2.45C5.14 2.48 5.12 2.51 5.11 2.54C4.83 2.28 4.46 2.14 4.09 2.14Z M8.45326 0.745812C8.40326 0.745812 8.36326 0.755812 8.31326 0.755812L8.28326 0.755812C7.19326 0.895812 6.23326 1.65581 5.73326 2.76581C5.73326 2.76581 5.73326 2.77581 5.73326 2.77581C5.70326 2.83581 5.68326 2.89581 5.66326 2.95581L5.65326 2.96581C5.63326 3.01581 5.61326 3.07581 5.59326 3.13581L5.58326 3.17581C5.56326 3.24581 5.54326 3.29581 5.53326 3.35581C5.49326 3.49581 5.38326 3.59581 5.25326 3.61581C5.12326 3.62581 5.00326 3.55581 4.93326 3.42581C4.76326 3.08581 4.43326 2.86581 4.08326 2.86581C3.54326 2.86581 3.10326 3.36581 3.10326 3.97581C3.10326 4.15581 3.14326 4.32581 3.21326 4.48581C3.27326 4.61581 3.26326 4.75581 3.19326 4.87581C3.12326 4.98581 3.00326 5.04581 2.88326 5.02581C2.79326 5.00581 2.70326 5.00581 2.61326 5.00581C1.53326 5.00581 0.653257 5.99581 0.653257 7.21581C0.653257 8.43581 1.53326 9.42581 2.61326 9.42581L12.3833 9.42581C13.4633 9.42581 14.3433 8.43581 14.3433 7.21581C14.3433 5.99581 13.4633 5.00581 12.3833 5.00581C12.3433 5.00581 12.3033 5.00581 12.2633 5.00581C12.1733 5.01581 12.0833 4.97581 12.0133 4.90581C11.9533 4.82581 11.9133 4.72581 11.9233 4.62581C11.9233 4.54581 11.9233 4.48581 11.9233 4.41581C11.9233 2.38581 10.4633 0.735812 8.66326 0.735812C8.61326 0.735812 8.55326 0.735812 8.49326 0.735812L8.45326 0.745812Z M10.4404 11.6835C10.4404 12.2935 10.8804 12.7935 11.4204 12.7935C11.9604 12.7935 12.4004 12.2935 12.4004 11.6835C12.4004 11.0735 11.9604 10.5835 11.4204 10.5835C10.8804 10.5835 10.4404 11.0735 10.4404 11.6835Z M11.7436 11.6909C11.7436 11.4809 11.6036 11.3209 11.4236 11.3209C11.2436 11.3209 11.0936 11.4809 11.0936 11.6909C11.0936 11.8909 11.2436 12.0609 11.4236 12.0609C11.6036 12.0609 11.7436 11.8909 11.7436 11.6909Z M5.86613 13.1609C5.86613 14.1709 6.59613 15.0009 7.49613 15.0009C8.39613 15.0009 9.13613 14.1709 9.13613 13.1609C9.13613 12.1409 8.39613 11.3209 7.49613 11.3209C6.59613 11.3209 5.86613 12.1409 5.86613 13.1609Z M8.47938 13.1568C8.47938 12.5468 8.03938 12.0568 7.49938 12.0568C6.95938 12.0568 6.51938 12.5468 6.51938 13.1568C6.51938 13.7668 6.95938 14.2668 7.49938 14.2668C8.03938 14.2668 8.47938 13.7668 8.47938 13.1568Z " /></svg>