<svg xmlns="http://www.w3.org/2000/svg" xmlns:xlink="http://www.w3.org/1999/xlink" width="15" height="16" viewBox="0 0 15 16" fill="none"><g opacity="1" transform="translate(0 0)  rotate(0 7.500000000000002 7.500000000000001)"><path id="路径 1" fill-rule="evenodd" style="fill:#FF9159" transform="translate(6.986379692834532 0)  rotate(0 0.5136288567193864 1.3280495322959658)" opacity="1" d="M1.03,2.15L1.03,0.51C1.03,0.23 0.8,0 0.51,0C0.23,0 0,0.23 0,0.51L0,2.15C0,2.43 0.23,2.66 0.51,2.66C0.8,2.66 1.03,2.43 1.03,2.15Z " /><path id="路径 2" fill-rule="evenodd" style="fill:#FF9159" transform="translate(2.046263112176973 2.0350117004433947)  rotate(0 1.0946971761054325 1.0886864736891422)" opacity="1" d="M1.68,2.18C1.81,2.18 1.94,2.13 2.04,2.03C2.24,1.83 2.24,1.5 2.04,1.31L0.88,0.15C0.68,-0.05 0.35,-0.05 0.15,0.15C-0.05,0.35 -0.05,0.67 0.15,0.87L1.31,2.03C1.41,2.13 1.54,2.18 1.68,2.18Z " /><path id="路径 3" fill-rule="evenodd" style="fill:#FF9159" transform="translate(0 6.947947889435419)  rotate(0 1.3353922278346615 0.5108046557370638)" opacity="1" d="M2.16,1.02C2.44,1.02 2.67,0.79 2.67,0.51C2.67,0.23 2.44,0 2.16,0L0.51,0C0.23,0 0,0.23 0,0.51C0,0.79 0.23,1.02 0.51,1.02L2.16,1.02Z " /><path id="路径 4" fill-rule="evenodd" style="fill:#FF9159" transform="translate(12.32921554433068 6.9479649111624)  rotate(0 1.335392227834662 0.5108046557370642)" opacity="1" d="M0.51,1.02L2.16,1.02C2.44,1.02 2.67,0.79 2.67,0.51C2.67,0.23 2.44,0 2.16,0L0.51,0C0.23,0 0,0.23 0,0.51C0,0.79 0.23,1.02 0.51,1.02Z " /><path id="路径 5" fill-rule="evenodd" style="fill:#FF9159" transform="translate(10.7643425021501 2.03499466207737)  rotate(0 1.094705734024858 1.0886949845526361)" opacity="1" d="M0.88,2.03L2.04,0.87C2.24,0.67 2.24,0.35 2.04,0.15C1.84,-0.05 1.51,-0.05 1.31,0.15L0.15,1.31C-0.05,1.5 -0.05,1.83 0.15,2.03C0.25,2.13 0.38,2.18 0.51,2.18C0.65,2.18 0.78,2.13 0.88,2.03Z " /><path id="分组 1" fill-rule="evenodd" style="fill:#FF9159" transform="translate(0.0397548903013103 3.204992704695247)  rotate(0 7.460210878020966 5.8975036476523774)" opacity="1" d="M3.2 4.6C2.91 4.71 2.65 4.88 2.44 5.11C2.11 5.47 1.93 5.92 1.91 6.4C1.45 6.56 1.02 6.83 0.69 7.21C0.25 7.71 0 8.36 0 9.03C0 10.55 1.25 11.8 2.78 11.8L12.15 11.8C12.88 11.8 13.57 11.51 14.1 10.99C14.63 10.47 14.92 9.77 14.92 9.04C14.92 8.31 14.64 7.63 14.13 7.11C13.73 6.71 13.24 6.44 12.69 6.33C12.62 5.49 12.28 4.69 11.73 4.04C11.68 2.98 11.24 1.99 10.48 1.24C9.67 0.44 8.6 4.44089e-16 7.46 4.44089e-16C6.32 4.44089e-16 5.24 0.44 4.44 1.25C3.63 2.05 3.18 3.12 3.18 4.25C3.18 4.37 3.19 4.49 3.2 4.6Z M4.21022 4.25163C4.21022 4.33163 4.21022 4.42163 4.22022 4.50163C4.44022 4.53163 4.65022 4.61163 4.84022 4.71163C5.57022 3.39163 6.97022 2.54163 8.52022 2.54163C9.12022 2.54163 9.69022 2.67163 10.2302 2.91163C10.3102 2.94163 10.3902 2.98163 10.4702 3.02163C10.3002 2.63163 10.0602 2.27163 9.75022 1.96163C9.14021 1.35163 8.33022 1.02163 7.46022 1.02163C5.67022 1.02163 4.21022 2.47163 4.21022 4.25163Z M2.96726 6.67746C3.00726 6.81746 2.97726 6.96746 2.89726 7.08746C2.80726 7.20746 2.68726 7.28746 2.53726 7.30746C1.67726 7.41746 1.02726 8.16746 1.02726 9.02746C1.02726 9.98746 1.81726 10.7775 2.78726 10.7775L12.1473 10.7775C12.6073 10.7775 13.0473 10.5975 13.3773 10.2675C13.7073 9.93746 13.8973 9.49746 13.8973 9.03746C13.8973 8.57746 13.7173 8.14746 13.3973 7.81746C13.0773 7.49746 12.6473 7.30746 12.1873 7.29746C11.9073 7.28746 11.6773 7.05746 11.6873 6.77746C11.6873 6.76746 11.6873 6.76746 11.6873 6.75746C11.6873 6.73746 11.6873 6.72746 11.6873 6.70746C11.6873 5.91746 11.3873 5.16746 10.8473 4.57746C10.8473 4.57746 10.8473 4.57746 10.8473 4.57746C10.5573 4.26746 10.2073 4.01746 9.80726 3.83746C9.40726 3.65746 8.96726 3.56746 8.51726 3.56746C7.16726 3.56746 5.96726 4.41746 5.52726 5.68746C5.46726 5.86746 5.31726 5.99746 5.13726 6.02746C5.10726 6.03746 5.07726 6.03746 5.04726 6.03746C4.88726 6.03746 4.74726 5.96746 4.64726 5.84746C4.45726 5.62746 4.18726 5.49746 3.89726 5.49746C3.86726 5.49746 3.84726 5.49746 3.81726 5.49746C3.81726 5.49746 3.81726 5.49746 3.81726 5.49746C3.81726 5.49746 3.81726 5.49746 3.81726 5.49746C3.57726 5.51746 3.35726 5.62746 3.19726 5.80746C3.02726 5.97746 2.93726 6.20746 2.93726 6.44746C2.93726 6.52746 2.94726 6.59746 2.96726 6.67746Z " /></g></svg>